<svg width="142" height="26" viewBox="0 0 142 26" fill="none" xmlns="http://www.w3.org/2000/svg">
<path d="M141.311 2.75902C140.899 2.01346 140.276 1.37684 139.489 0.963209C139.104 0.787884 137.661 0.207439 136.29 0.685753L135.783 0.876398C135.783 0.876398 135.678 0.912144 135.555 0.990444C136.56 2.96328 137.918 4.32162 139.347 5.25612C138.105 4.65355 136.999 3.71735 136.033 2.64156C135.73 2.30453 135.56 2.08665 135.279 1.72409C135.279 1.72409 133.69 3.18626 132.935 5.88252C132.935 5.88252 132.258 3.17605 130.773 1.78026C130.444 2.17176 130.124 2.53433 129.77 2.89519C128.753 3.92501 127.601 4.80845 126.331 5.35144C127.831 4.46971 129.275 3.14541 130.384 1.16747C130.308 1.12151 130.254 1.09938 130.254 1.09938L129.754 0.888313C129.754 0.888313 129.744 0.884909 129.739 0.883207L129.721 0.876398C127.342 0.1768 125.454 1.21003 124.491 2.76412C123.496 4.37098 123.427 6.41531 124.174 8.05622C124.191 8.09196 124.206 8.12941 124.223 8.16686C125.655 6.81362 127.805 6.90554 129.298 5.67656C129.393 5.59826 129.486 5.51655 129.575 5.42804C130.101 4.90887 130.469 4.21949 130.658 3.47393C130.79 3.70373 130.91 3.90459 131.02 4.08842C131.77 5.34634 132.259 6.27233 132.469 7.72088C132.367 7.71748 132.269 7.71237 132.166 7.71067C127.854 7.74131 124.211 10.3303 122.964 13.8981C122.676 14.7679 122.524 15.7229 122.508 16.7595C122.598 21.5733 126.871 25.4543 132.151 25.5002C133.089 25.4883 133.977 25.3845 134.817 25.187C135.068 25.124 135.315 25.0542 135.558 24.9742C136.413 24.6678 137.264 24.1487 137.742 23.8253C138.369 23.3997 139.21 22.5997 139.771 21.7605C140.08 21.2975 139.94 20.2115 139.316 20.5792C138.08 21.3077 136.415 22.2882 133.698 22.3069C128.729 22.3427 126.27 19.3809 126.582 17.1442C126.586 17.1238 126.589 17.105 126.596 17.0863L126.655 16.9076C126.675 16.8497 126.738 16.8208 126.795 16.8446C127.51 17.1493 128.231 17.4216 128.959 17.6616C130.05 18.0191 131.31 18.1995 132.739 18.1995C133.911 18.1995 135.019 18.0089 136.063 17.6259C137.107 17.2446 137.957 16.6829 138.614 15.9424C139.269 15.202 139.598 14.259 139.598 13.1134C139.598 11.9678 139.276 11.0606 138.631 10.2486C138.082 9.55925 137.359 9.00433 136.463 8.58049C135.631 8.21452 134.732 7.95408 133.788 7.81791C133.758 7.81451 133.727 7.8077 133.697 7.80429C133.66 7.79919 133.622 7.79578 133.585 7.79067C133.472 7.77706 133.354 7.77025 133.237 7.76004C133.212 6.96682 133.33 5.46379 134.834 3.34116C135.019 3.07903 135.144 2.98881 135.229 2.982C135.3 3.78884 135.604 4.81185 136.58 5.61528C136.594 5.62549 136.605 5.63741 136.619 5.64762C136.656 5.67656 136.695 5.7055 136.734 5.73443C136.798 5.7821 136.864 5.82805 136.93 5.87231C136.958 5.89104 136.987 5.91146 137.018 5.93019C137.034 5.9421 137.053 5.95231 137.072 5.96253C137.335 6.12594 137.61 6.27062 137.894 6.40339C138.34 6.61276 138.799 6.8 139.252 6.99916C140 7.33108 140.725 7.55918 141.306 8.16175C141.313 8.14813 141.32 8.13281 141.326 8.1192C142.186 6.51063 142.237 4.42716 141.311 2.75221V2.75902ZM135.44 11.0963C136.073 11.5576 136.391 12.1568 136.391 12.8938C136.391 13.447 136.207 13.9236 135.842 14.322C135.475 14.722 134.975 15.0216 134.342 15.2207C133.709 15.4216 132.969 15.5356 132.124 15.5663C131.167 15.5663 130.109 15.4505 128.956 15.2207C128.312 15.0931 127.616 14.8837 126.868 14.5977C126.81 14.5756 126.782 14.5058 126.809 14.4479C127.19 13.6411 127.68 12.9466 128.28 12.3627C128.927 11.7329 129.66 11.2495 130.477 10.9108C131.293 10.5737 132.126 10.4035 132.97 10.4035C133.984 10.4035 134.808 10.6333 135.442 11.0946L135.44 11.0963Z" fill="#2D3C29"/>
<path d="M19.0849 1.44471C17.6441 0.814904 15.9567 0.5 14.0211 0.5H0V4.24481H4.24973V21.219H0V24.9638H13.4552V21.219H8.85247V16.2622H14.0937C16.0294 16.2622 17.7117 15.9354 19.139 15.2818C20.5662 14.6281 21.6709 13.7004 22.4496 12.5004C23.2282 11.3004 23.6184 9.89096 23.6184 8.27558C23.6184 6.66021 23.2232 5.30357 22.4327 4.13927C21.6422 2.97498 20.5257 2.07793 19.0866 1.44642L19.0849 1.44471ZM18.2353 10.8952C17.7151 11.5251 17.0614 11.9591 16.2709 12.1974C15.4804 12.4357 14.6714 12.5532 13.8454 12.5532L8.85247 12.4987V4.24481H13.739C14.6122 4.24481 15.45 4.36396 16.2523 4.60227C17.0546 4.84057 17.7151 5.24399 18.2353 5.81422C18.7539 6.38445 19.014 7.18108 19.014 8.20409C19.014 9.36839 18.7539 10.2671 18.2353 10.8969V10.8952Z" fill="#2D3C29"/>
<path d="M33.4971 0.499878H33.2488H29.1072H25.6007V3.99446H29.1072V21.4674H25.5652V24.962H37.1084V21.4674H33.4971V0.499878Z" fill="#2D3C29"/>
<path d="M57.2012 21.4846C57.0238 21.5442 56.8414 21.5731 56.6523 21.5731C56.3448 21.5731 56.0915 21.4608 55.8905 21.2344C55.6895 21.008 55.5898 20.6455 55.5898 20.1467V14.5125C55.5898 13.0861 55.2942 11.8741 54.7047 10.8749C54.1153 9.87573 53.2471 9.10464 52.1019 8.55654C50.9567 8.01014 49.5581 7.73608 47.9062 7.73608C46.6782 7.73608 45.3793 7.89609 44.0112 8.2178C42.6413 8.53952 41.2968 8.98379 39.9743 9.55572L40.8594 12.9431C42.0164 12.4682 43.143 12.0988 44.2409 11.8383C45.3388 11.5762 46.359 11.4468 47.3032 11.4468C48.0582 11.4468 48.749 11.549 49.374 11.7498C49.999 11.9524 50.4956 12.2622 50.8604 12.6775C51.2269 13.0946 51.4093 13.6461 51.4093 14.3355V15.6683C50.8114 15.4197 50.2202 15.1934 49.6392 14.9959C48.6241 14.6521 47.3961 14.4784 45.957 14.4784C44.8 14.4784 43.6903 14.6861 42.6278 15.1031C41.5654 15.5202 40.6854 16.1432 39.9895 16.9755C39.2936 17.8079 38.9321 18.8428 38.9102 20.0786C38.9102 21.2668 39.1753 22.2659 39.7074 23.0745C40.2378 23.883 40.9472 24.4822 41.8323 24.8754C42.7173 25.2669 43.6666 25.4643 44.6834 25.4643C45.7003 25.4643 46.5836 25.2975 47.4805 24.9656C48.3774 24.6337 49.2625 24.152 50.1358 23.5221C50.6493 23.1511 51.1509 22.7408 51.6407 22.2915C51.7252 22.5774 51.8299 22.8447 51.96 23.0932C52.3265 23.7945 52.8096 24.329 53.4126 24.6984C54.0139 25.066 54.6811 25.2516 55.4125 25.2516C56.1438 25.2516 56.7451 25.1682 57.289 25.0013C57.8312 24.8345 58.2451 24.6694 58.5288 24.5026L57.6437 21.3638C57.5255 21.3876 57.3786 21.4302 57.2012 21.488V21.4846ZM47.7812 21.4489C47.0617 21.6753 46.4418 21.7876 45.9215 21.7876C45.4722 21.7876 45.0483 21.7229 44.6463 21.5919C44.2443 21.4608 43.92 21.2531 43.6734 20.9672C43.4251 20.6812 43.3018 20.3254 43.3018 19.8982C43.3018 19.3756 43.4673 18.9586 43.7967 18.6505C44.1277 18.3424 44.5584 18.1041 45.0888 17.9373C45.6192 17.7705 46.1918 17.6871 46.8066 17.6871C47.538 17.6871 48.3994 17.7705 49.3909 17.9373C50.0125 18.0411 50.6847 18.2249 51.4093 18.4888V19.4709C50.9786 19.8012 50.553 20.0922 50.1341 20.3442C49.2845 20.8548 48.4991 21.2242 47.7795 21.4489H47.7812Z" fill="#2D3C29"/>
<path d="M81.5095 15.5469C81.5095 14.2397 81.3676 13.0992 81.0838 12.1238C80.8 11.1502 80.398 10.3348 79.8795 9.6812C79.3593 9.02756 78.7106 8.54074 77.932 8.21902C77.1533 7.89731 76.2547 7.7373 75.2413 7.7373C74.3917 7.7373 73.5894 7.86837 72.8343 8.12881C72.0793 8.39094 71.3479 8.78926 70.6385 9.32374C69.9291 9.85823 69.2096 10.5136 68.4782 11.2847C68.2569 11.5196 68.0323 11.7664 67.8059 12.0234V8.16455H59.874V11.6591H63.4143V21.4654H59.874V24.96H70.7095V21.4654H67.8059V15.484C67.9124 15.3597 68.0188 15.2371 68.1252 15.118C68.7383 14.4286 69.3582 13.8396 69.9849 13.3528C70.6098 12.866 71.2246 12.4966 71.826 12.2481C72.4273 11.9979 73.0353 11.8736 73.6502 11.8736C74.216 11.8736 74.7126 11.9621 75.1366 12.1409C75.5622 12.3196 75.9203 12.5749 76.2159 12.9068C76.5115 13.2405 76.7344 13.632 76.8881 14.0831C77.0418 14.5358 77.1178 15.0465 77.1178 15.6167V21.4654H74.2143V24.96H84.5886V21.4654H81.5078V15.5469H81.5095Z" fill="#2D3C29"/>
<path d="M97.1415 21.3769C96.6567 21.508 96.1196 21.5727 95.5301 21.5727C94.9862 21.5727 94.5082 21.4484 94.0961 21.1982C93.6823 20.948 93.3647 20.5871 93.1401 20.1105C92.9154 19.6356 92.8039 19.0535 92.8039 18.3641V11.6609H97.9388V8.16628H92.8039V3.49548H88.414V8.16628H84.9092V11.6609H88.414V18.3283C88.414 19.8024 88.6741 21.0688 89.1927 22.1259C89.7112 23.1847 90.4494 24.0034 91.4054 24.5856C92.3614 25.1677 93.4998 25.4588 94.8224 25.4588C95.9321 25.4588 96.905 25.3277 97.7428 25.0673C98.5806 24.8051 99.2714 24.497 99.8136 24.1396L98.5384 20.8595C98.0891 21.074 97.6229 21.2459 97.1398 21.3769H97.1415Z" fill="#2D3C29"/>
<path d="M120.281 21.3604C120.163 21.3842 120.016 21.4268 119.838 21.4846C119.661 21.5442 119.479 21.5731 119.289 21.5731C118.982 21.5731 118.729 21.4608 118.528 21.2344C118.327 21.008 118.227 20.6455 118.227 20.1467V14.5125C118.227 13.0861 117.931 11.8741 117.342 10.8749C116.751 9.87573 115.884 9.10464 114.739 8.55654C113.594 8.01014 112.195 7.73608 110.543 7.73608C109.315 7.73608 108.017 7.89609 106.648 8.2178C105.279 8.53952 103.934 8.98379 102.611 9.55572L103.497 12.9431C104.654 12.4682 105.78 12.0988 106.878 11.8384C107.976 11.5762 108.996 11.4468 109.94 11.4468C110.695 11.4468 111.386 11.549 112.011 11.7498C112.636 11.9524 113.133 12.2622 113.498 12.6775C113.864 13.0946 114.047 13.6461 114.047 14.3355V15.6666C113.449 15.418 112.857 15.1917 112.276 14.9942C111.261 14.6504 110.033 14.4767 108.594 14.4767C107.437 14.4767 106.327 14.6844 105.265 15.1014C104.203 15.5185 103.323 16.1415 102.627 16.9738C101.931 17.8062 101.569 18.8411 101.547 20.0769C101.547 21.2651 101.813 22.2642 102.345 23.0728C102.875 23.8813 103.584 24.4805 104.469 24.8737C105.355 25.2652 106.306 25.4626 107.321 25.4626C108.336 25.4626 109.221 25.2958 110.118 24.9639C111.015 24.632 111.9 24.1503 112.773 23.5204C113.286 23.1494 113.788 22.7391 114.278 22.2898C114.362 22.5757 114.467 22.843 114.597 23.0915C114.962 23.7928 115.447 24.3273 116.048 24.6967C116.649 25.0643 117.317 25.2499 118.048 25.2499C118.779 25.2499 119.381 25.1665 119.925 24.9996C120.467 24.8328 120.881 24.6677 121.164 24.5009L120.279 21.3621L120.281 21.3604ZM110.42 21.4489C109.701 21.6753 109.081 21.7876 108.56 21.7876C108.111 21.7876 107.687 21.7229 107.285 21.5919C106.883 21.4608 106.559 21.2531 106.312 20.9672C106.064 20.6812 105.941 20.3254 105.941 19.8982C105.941 19.3756 106.106 18.9586 106.436 18.6505C106.767 18.3424 107.197 18.1041 107.728 17.9373C108.258 17.7705 108.831 17.6871 109.446 17.6871C110.177 17.6871 111.038 17.7705 112.03 17.9373C112.651 18.0411 113.324 18.2249 114.048 18.4888V19.471C113.618 19.8012 113.194 20.0922 112.773 20.3442C111.923 20.8548 111.138 21.2242 110.418 21.4489H110.42Z" fill="#2D3C29"/>
</svg>
