<?xml version="1.0" encoding="UTF-8"?>
<svg id="Camada_2" xmlns="http://www.w3.org/2000/svg" viewBox="0 0 840.64 146.88">
  <defs>
    <style>
      .cls-1 {
        fill: #afe507;
      }

      .cls-2 {
        fill: #f4f4f4;
      }
    </style>
  </defs>
  <g id="LOGOTIPO">
    <g>
      <path class="cls-1" d="M836.62,13.27c-2.44-4.38-6.13-8.12-10.79-10.55-2.28-1.03-10.82-4.44-18.94-1.63l-3,1.12s-.62.21-1.35.67c5.95,11.59,13.99,19.57,22.45,25.06-7.35-3.54-13.9-9.04-19.62-15.36-1.79-1.98-2.8-3.26-4.46-5.39,0,0-9.41,8.59-13.88,24.43,0,0-4.01-15.9-12.8-24.1-1.95,2.3-3.84,4.43-5.94,6.55-6.02,6.05-12.84,11.24-20.36,14.43,8.88-5.18,17.43-12.96,24-24.58-.45-.27-.77-.4-.77-.4l-2.96-1.24s-.06-.02-.09-.03l-.11-.04c-14.08-4.11-25.26,1.96-30.96,11.09-5.89,9.44-6.3,21.45-1.88,31.09.1.21.19.43.29.65,8.48-7.95,21.21-7.41,30.05-14.63.56-.46,1.11-.94,1.64-1.46,3.11-3.05,5.29-7.1,6.41-11.48.78,1.35,1.49,2.53,2.14,3.61,4.44,7.39,7.34,12.83,8.58,21.34-.6-.02-1.18-.05-1.79-.06-25.53.18-47.1,15.39-54.48,36.35-1.71,5.11-2.61,10.72-2.7,16.81.53,28.28,25.83,51.08,57.09,51.35,5.55-.07,10.81-.68,15.78-1.84,1.49-.37,2.95-.78,4.39-1.25,5.06-1.8,10.1-4.85,12.93-6.75,3.71-2.5,8.69-7.2,12.01-12.13,1.83-2.72,1-9.1-2.69-6.94-7.32,4.28-17.18,10.04-33.26,10.15-29.42.21-43.98-17.19-42.13-30.33.02-.12.04-.23.08-.34l.35-1.05c.12-.34.49-.51.83-.37,4.23,1.79,8.5,3.39,12.81,4.8,6.46,2.1,13.92,3.16,22.38,3.16,6.94,0,13.5-1.12,19.68-3.37,6.18-2.24,11.21-5.54,15.1-9.89,3.88-4.35,5.83-9.89,5.83-16.62s-1.91-12.06-5.73-16.83c-3.25-4.05-7.53-7.31-12.83-9.8-4.93-2.15-10.25-3.68-15.84-4.48-.18-.02-.36-.06-.54-.08-.22-.03-.44-.05-.66-.08-.67-.08-1.37-.12-2.06-.18-.15-4.66.55-13.49,9.45-25.96,1.1-1.54,1.84-2.07,2.34-2.11.42,4.74,2.22,10.75,8,15.47.08.06.15.13.23.19.22.17.45.34.68.51.38.28.77.55,1.16.81.17.11.34.23.52.34.1.07.21.13.32.19,1.56.96,3.19,1.81,4.87,2.59,2.64,1.23,5.36,2.33,8.04,3.5,4.43,1.95,8.72,3.29,12.16,6.83.04-.08.08-.17.12-.25,5.09-9.45,5.39-21.69-.09-31.53ZM801.86,62.25c3.75,2.71,5.63,6.23,5.63,10.56,0,3.25-1.09,6.05-3.25,8.39-2.17,2.35-5.13,4.11-8.88,5.28-3.75,1.18-8.13,1.85-13.13,2.03-5.67,0-11.93-.68-18.76-2.03-3.81-.75-7.93-1.98-12.36-3.66-.34-.13-.51-.54-.35-.88,2.26-4.74,5.16-8.82,8.71-12.25,3.83-3.7,8.17-6.54,13.01-8.53,4.83-1.98,9.76-2.98,14.76-2.98,6,0,10.88,1.35,14.63,4.06Z"/>
      <g>
        <path class="cls-2" d="M112.99,5.55c-8.53-3.7-18.52-5.55-29.98-5.55H0v22h25.16v99.72H0v22h79.66v-22h-27.25v-29.12h31.03c11.46,0,21.42-1.92,29.87-5.76,8.45-3.84,14.99-9.29,19.6-16.34,4.61-7.05,6.92-15.33,6.92-24.82s-2.34-17.46-7.02-24.3c-4.68-6.84-11.29-12.11-19.81-15.82ZM107.96,61.07c-3.08,3.7-6.95,6.25-11.63,7.65-4.68,1.4-9.47,2.09-14.36,2.09l-29.56-.32V22h28.93c5.17,0,10.13.7,14.88,2.1,4.75,1.4,8.66,3.77,11.74,7.12,3.07,3.35,4.61,8.03,4.61,14.04,0,6.84-1.54,12.12-4.61,15.82Z"/>
        <polygon class="cls-2" points="198.31 0 196.84 0 172.32 0 151.56 0 151.56 20.53 172.32 20.53 172.32 123.18 151.35 123.18 151.35 143.71 219.69 143.71 219.69 123.18 198.31 123.18 198.31 0"/>
        <path class="cls-2" d="M338.66,123.28c-1.05.35-2.13.52-3.25.52-1.82,0-3.32-.66-4.51-1.99-1.19-1.33-1.78-3.46-1.78-6.39v-33.1c0-8.38-1.75-15.5-5.24-21.37-3.49-5.87-8.63-10.4-15.41-13.62-6.78-3.21-15.06-4.82-24.84-4.82-7.27,0-14.96.94-23.06,2.83-8.11,1.89-16.07,4.5-23.9,7.86l5.24,19.9c6.85-2.79,13.52-4.96,20.02-6.49,6.5-1.54,12.54-2.3,18.13-2.3,4.47,0,8.56.6,12.26,1.78,3.7,1.19,6.64,3.01,8.8,5.45,2.17,2.45,3.25,5.69,3.25,9.74v7.83c-3.54-1.46-7.04-2.79-10.48-3.95-6.01-2.02-13.28-3.04-21.8-3.04-6.85,0-13.42,1.22-19.71,3.67-6.29,2.45-11.5,6.11-15.62,11-4.12,4.89-6.26,10.97-6.39,18.23,0,6.98,1.57,12.85,4.72,17.6,3.14,4.75,7.34,8.27,12.58,10.58,5.24,2.3,10.86,3.46,16.88,3.46s11.25-.98,16.56-2.93c5.31-1.95,10.55-4.78,15.72-8.48,3.04-2.18,6.01-4.59,8.91-7.23.5,1.68,1.12,3.25,1.89,4.71,2.17,4.12,5.03,7.26,8.6,9.43,3.56,2.16,7.51,3.25,11.84,3.25s7.89-.49,11.11-1.47c3.21-.98,5.66-1.95,7.34-2.93l-5.24-18.44c-.7.14-1.57.39-2.62.73ZM282.89,123.07c-4.26,1.33-7.93,1.99-11.01,1.99-2.66,0-5.17-.38-7.55-1.15-2.38-.77-4.3-1.99-5.76-3.67-1.47-1.68-2.2-3.77-2.2-6.28,0-3.07.98-5.52,2.93-7.33,1.96-1.81,4.51-3.21,7.65-4.19,3.14-.98,6.53-1.47,10.17-1.47,4.33,0,9.43.49,15.3,1.47,3.68.61,7.66,1.69,11.95,3.24v5.77c-2.55,1.94-5.07,3.65-7.55,5.13-5.03,3-9.68,5.17-13.94,6.49Z"/>
        <path class="cls-2" d="M482.57,88.4c0-7.68-.84-14.38-2.52-20.11-1.68-5.72-4.06-10.51-7.13-14.35-3.08-3.84-6.92-6.7-11.53-8.59-4.61-1.89-9.93-2.83-15.93-2.83-5.03,0-9.78.77-14.25,2.3-4.47,1.54-8.8,3.88-13,7.02s-8.46,6.99-12.79,11.52c-1.31,1.38-2.64,2.83-3.98,4.34v-22.67h-46.96v20.53h20.96v57.61h-20.96v20.53h64.15v-20.53h-17.19v-35.14c.63-.73,1.26-1.45,1.89-2.15,3.63-4.05,7.3-7.51,11.01-10.37,3.7-2.86,7.34-5.03,10.9-6.49,3.56-1.47,7.16-2.2,10.8-2.2,3.35,0,6.29.52,8.8,1.57,2.52,1.05,4.64,2.55,6.39,4.5,1.75,1.96,3.07,4.26,3.98,6.91.91,2.66,1.36,5.66,1.36,9.01v34.36h-17.19v20.53h61.42v-20.53h-18.24v-34.77Z"/>
        <path class="cls-2" d="M575.12,122.65c-2.87.77-6.05,1.15-9.54,1.15-3.22,0-6.05-.73-8.49-2.2-2.45-1.47-4.33-3.59-5.66-6.39-1.33-2.79-1.99-6.21-1.99-10.26v-39.38h30.4v-20.53h-30.4v-27.44h-25.99v27.44h-20.75v20.53h20.75v39.17c0,8.66,1.54,16.1,4.61,22.31,3.07,6.22,7.44,11.03,13.1,14.45,5.66,3.42,12.4,5.13,20.23,5.13,6.57,0,12.33-.77,17.29-2.3,4.96-1.54,9.05-3.35,12.26-5.45l-7.55-19.27c-2.66,1.26-5.42,2.27-8.28,3.04Z"/>
        <path class="cls-2" d="M712.11,122.55c-.7.14-1.57.39-2.62.73-1.05.35-2.13.52-3.25.52-1.82,0-3.32-.66-4.51-1.99-1.19-1.33-1.78-3.46-1.78-6.39v-33.1c0-8.38-1.75-15.5-5.24-21.37-3.5-5.87-8.63-10.4-15.41-13.62-6.78-3.21-15.06-4.82-24.84-4.82-7.27,0-14.96.94-23.06,2.83-8.11,1.89-16.07,4.5-23.9,7.86l5.24,19.9c6.85-2.79,13.52-4.96,20.02-6.49,6.5-1.54,12.54-2.3,18.13-2.3,4.47,0,8.56.6,12.26,1.78,3.7,1.19,6.64,3.01,8.8,5.45,2.17,2.45,3.25,5.69,3.25,9.74v7.82c-3.54-1.46-7.04-2.79-10.48-3.95-6.01-2.02-13.28-3.04-21.8-3.04-6.85,0-13.42,1.22-19.71,3.67-6.29,2.45-11.5,6.11-15.62,11-4.12,4.89-6.26,10.97-6.39,18.23,0,6.98,1.57,12.85,4.72,17.6,3.14,4.75,7.34,8.27,12.58,10.58,5.24,2.3,10.87,3.46,16.88,3.46s11.25-.98,16.56-2.93c5.31-1.95,10.55-4.78,15.72-8.48,3.04-2.18,6.01-4.59,8.91-7.23.5,1.68,1.12,3.25,1.89,4.71,2.16,4.12,5.03,7.26,8.59,9.43,3.56,2.16,7.51,3.25,11.84,3.25s7.89-.49,11.11-1.47c3.21-.98,5.66-1.95,7.34-2.93l-5.24-18.44ZM653.73,123.07c-4.26,1.33-7.93,1.99-11.01,1.99-2.66,0-5.17-.38-7.55-1.15-2.38-.77-4.3-1.99-5.76-3.67-1.47-1.68-2.2-3.77-2.2-6.28,0-3.07.98-5.52,2.93-7.33,1.96-1.81,4.51-3.21,7.65-4.19,3.14-.98,6.53-1.47,10.17-1.47,4.33,0,9.43.49,15.3,1.47,3.68.61,7.66,1.69,11.95,3.24v5.77c-2.55,1.94-5.06,3.65-7.55,5.13-5.03,3-9.68,5.17-13.94,6.49Z"/>
      </g>
    </g>
  </g>
</svg>